<svg id="visual" viewBox="0 0 900 300" width="900" height="300" xmlns="http://www.w3.org/2000/svg" xmlns:xlink="http://www.w3.org/1999/xlink" version="1.1"><path d="M0 31L150 31L300 19L450 22L600 19L750 28L900 10L900 0L750 0L600 0L450 0L300 0L150 0L0 0Z" fill="#02020b"></path><path d="M0 67L150 61L300 82L450 49L600 70L750 55L900 64L900 8L750 26L600 17L450 20L300 17L150 29L0 29Z" fill="#090914"></path><path d="M0 79L150 91L300 109L450 67L600 82L750 76L900 88L900 62L750 53L600 68L450 47L300 80L150 59L0 65Z" fill="#0f0f1b"></path><path d="M0 100L150 103L300 130L450 85L600 97L750 91L900 109L900 86L750 74L600 80L450 65L300 107L150 89L0 77Z" fill="#141321"></path><path d="M0 106L150 115L300 151L450 94L600 118L750 103L900 127L900 107L750 89L600 95L450 83L300 128L150 101L0 98Z" fill="#171728"></path><path d="M0 133L150 136L300 190L450 130L600 181L750 151L900 166L900 125L750 101L600 116L450 92L300 149L150 113L0 104Z" fill="#1b1b2e"></path><path d="M0 148L150 163L300 202L450 157L600 211L750 169L900 202L900 164L750 149L600 179L450 128L300 188L150 134L0 131Z" fill="#1f1f35"></path><path d="M0 172L150 202L300 220L450 196L600 232L750 190L900 223L900 200L750 167L600 209L450 155L300 200L150 161L0 146Z" fill="#23223c"></path><path d="M0 187L150 211L300 235L450 214L600 238L750 211L900 241L900 221L750 188L600 230L450 194L300 218L150 200L0 170Z" fill="#282643"></path><path d="M0 301L150 301L300 301L450 301L600 301L750 301L900 301L900 239L750 209L600 236L450 212L300 233L150 209L0 185Z" fill="#2c2a4a"></path></svg>