<svg id="visual" viewBox="0 0 900 300" width="900" height="300" xmlns="http://www.w3.org/2000/svg" xmlns:xlink="http://www.w3.org/1999/xlink" version="1.1"><path d="M0 52L150 49L300 55L450 55L600 52L750 55L900 52L900 0L750 0L600 0L450 0L300 0L150 0L0 0Z" fill="#b0235f"></path><path d="M0 79L150 79L300 76L450 76L600 82L750 73L900 88L900 50L750 53L600 50L450 53L300 53L150 47L0 50Z" fill="#b7366a"></path><path d="M0 118L150 121L300 115L450 133L600 160L750 139L900 136L900 86L750 71L600 80L450 74L300 74L150 77L0 77Z" fill="#bf4574"></path><path d="M0 127L150 139L300 121L450 142L600 172L750 148L900 142L900 134L750 137L600 158L450 131L300 113L150 119L0 116Z" fill="#c6547f"></path><path d="M0 172L150 157L300 142L450 190L600 196L750 166L900 184L900 140L750 146L600 170L450 140L300 119L150 137L0 125Z" fill="#cd618a"></path><path d="M0 181L150 175L300 151L450 208L600 217L750 181L900 196L900 182L750 164L600 194L450 188L300 140L150 155L0 170Z" fill="#d36f94"></path><path d="M0 247L150 238L300 232L450 259L600 259L750 235L900 256L900 194L750 179L600 215L450 206L300 149L150 173L0 179Z" fill="#da7c9f"></path><path d="M0 256L150 250L300 253L450 277L600 274L750 256L900 265L900 254L750 233L600 257L450 257L300 230L150 236L0 245Z" fill="#e088aa"></path><path d="M0 286L150 280L300 277L450 292L600 292L750 280L900 283L900 263L750 254L600 272L450 275L300 251L150 248L0 254Z" fill="#e795b5"></path><path d="M0 301L150 301L300 301L450 301L600 301L750 301L900 301L900 281L750 278L600 290L450 290L300 275L150 278L0 284Z" fill="#eda2c0"></path></svg>