<svg id="visual" viewBox="0 0 900 300" width="900" height="300" xmlns="http://www.w3.org/2000/svg" xmlns:xlink="http://www.w3.org/1999/xlink" version="1.1"><path d="M0 22L150 22L300 22L450 22L600 7L750 16L900 22L900 0L750 0L600 0L450 0L300 0L150 0L0 0Z" fill="#eda2c0"></path><path d="M0 37L150 40L300 52L450 52L600 19L750 40L900 55L900 20L750 14L600 5L450 20L300 20L150 20L0 20Z" fill="#f49ab4"></path><path d="M0 49L150 52L300 73L450 67L600 37L750 46L900 67L900 53L750 38L600 17L450 50L300 50L150 38L0 35Z" fill="#fa93a6"></path><path d="M0 61L150 67L300 82L450 85L600 61L750 64L900 91L900 65L750 44L600 35L450 65L300 71L150 50L0 47Z" fill="#fe8c96"></path><path d="M0 157L150 157L300 121L450 145L600 97L750 127L900 136L900 89L750 62L600 59L450 83L300 80L150 65L0 59Z" fill="#ff8784"></path><path d="M0 175L150 175L300 139L450 166L600 124L750 145L900 157L900 134L750 125L600 95L450 143L300 119L150 155L0 155Z" fill="#ff8370"></path><path d="M0 220L150 208L300 178L450 190L600 172L750 184L900 196L900 155L750 143L600 122L450 164L300 137L150 173L0 173Z" fill="#fb815b"></path><path d="M0 247L150 232L300 199L450 220L600 187L750 208L900 211L900 194L750 182L600 170L450 188L300 176L150 206L0 218Z" fill="#f58145"></path><path d="M0 277L150 268L300 286L450 271L600 265L750 268L900 277L900 209L750 206L600 185L450 218L300 197L150 230L0 245Z" fill="#ec832c"></path><path d="M0 301L150 301L300 301L450 301L600 301L750 301L900 301L900 275L750 266L600 263L450 269L300 284L150 266L0 275Z" fill="#df8601"></path></svg>