<svg id="visual" viewBox="0 0 900 300" width="900" height="300" xmlns="http://www.w3.org/2000/svg" xmlns:xlink="http://www.w3.org/1999/xlink" version="1.1"><path d="M0 16L64 16L129 16L193 22L257 16L321 13L386 25L450 19L514 19L579 25L643 13L707 25L771 25L836 19L900 22L900 0L836 0L771 0L707 0L643 0L579 0L514 0L450 0L386 0L321 0L257 0L193 0L129 0L64 0L0 0Z" fill="#2c2a4a"></path><path d="M0 73L64 79L129 67L193 88L257 67L321 94L386 64L450 85L514 61L579 103L643 67L707 79L771 97L836 85L900 79L900 20L836 17L771 23L707 23L643 11L579 23L514 17L450 17L386 23L321 11L257 14L193 20L129 14L64 14L0 14Z" fill="#372c53"></path><path d="M0 100L64 106L129 91L193 112L257 82L321 109L386 91L450 100L514 76L579 118L643 88L707 97L771 112L836 106L900 106L900 77L836 83L771 95L707 77L643 65L579 101L514 59L450 83L386 62L321 92L257 65L193 86L129 65L64 77L0 71Z" fill="#442e5a"></path><path d="M0 133L64 139L129 133L193 151L257 133L321 142L386 130L450 148L514 112L579 157L643 115L707 151L771 142L836 133L900 133L900 104L836 104L771 110L707 95L643 86L579 116L514 74L450 98L386 89L321 107L257 80L193 110L129 89L64 104L0 98Z" fill="#532f60"></path><path d="M0 160L64 163L129 166L193 181L257 166L321 172L386 163L450 184L514 145L579 178L643 136L707 172L771 166L836 160L900 160L900 131L836 131L771 140L707 149L643 113L579 155L514 110L450 146L386 128L321 140L257 131L193 149L129 131L64 137L0 131Z" fill="#622f64"></path><path d="M0 175L64 178L129 178L193 199L257 181L321 190L386 181L450 202L514 163L579 190L643 154L707 187L771 181L836 178L900 172L900 158L836 158L771 164L707 170L643 134L579 176L514 143L450 182L386 161L321 170L257 164L193 179L129 164L64 161L0 158Z" fill="#722d67"></path><path d="M0 193L64 193L129 196L193 217L257 202L321 208L386 199L450 220L514 178L579 202L643 175L707 202L771 193L836 193L900 193L900 170L836 176L771 179L707 185L643 152L579 188L514 161L450 200L386 179L321 188L257 179L193 197L129 176L64 176L0 173Z" fill="#822b68"></path><path d="M0 202L64 202L129 214L193 226L257 214L321 217L386 208L450 229L514 196L579 214L643 193L707 214L771 205L836 202L900 202L900 191L836 191L771 191L707 200L643 173L579 200L514 176L450 218L386 197L321 206L257 200L193 215L129 194L64 191L0 191Z" fill="#922967"></path><path d="M0 271L64 274L129 280L193 274L257 283L321 271L386 274L450 283L514 277L579 274L643 274L707 283L771 283L836 271L900 274L900 200L836 200L771 203L707 212L643 191L579 212L514 194L450 227L386 206L321 215L257 212L193 224L129 212L64 200L0 200Z" fill="#a12664"></path><path d="M0 301L64 301L129 301L193 301L257 301L321 301L386 301L450 301L514 301L579 301L643 301L707 301L771 301L836 301L900 301L900 272L836 269L771 281L707 281L643 272L579 272L514 275L450 281L386 272L321 269L257 281L193 272L129 278L64 272L0 269Z" fill="#b0235f"></path></svg>